<svg version="1.1" id="Layer_1" xmlns="http://www.w3.org/2000/svg" xmlns:xlink="http://www.w3.org/1999/xlink" x="0px" y="0px"
	 width="100%" viewBox="0 0 50 50" enable-background="new 0 0 50 50" xml:space="preserve">
<path fill="#000000" opacity="1.000000" stroke="none" 
	d="
M8.000000,51.000000 
	C5.679344,51.000000 3.358689,51.000000 1.019017,51.000000 
	C1.019017,34.436581 1.019017,17.873140 1.019017,1.000000 
	C8.684767,1.000000 16.373692,1.000000 24.878227,1.383062 
	C25.462559,8.169947 25.192148,14.572693 25.016098,20.978033 
	C24.924660,24.304852 25.000000,27.636257 25.000000,31.559637 
	C22.020144,29.460575 19.933928,27.991009 17.847712,26.521441 
	C17.292507,27.133348 16.737305,27.745256 16.182100,28.357164 
	C19.383335,31.696108 22.584572,35.035053 26.130079,38.733082 
	C29.093109,34.430149 33.889782,32.458313 35.141052,27.682646 
	C34.815422,27.304295 34.489792,26.925943 34.164162,26.547592 
	C31.983969,28.062433 29.803778,29.577274 27.000000,31.525394 
	C27.000000,20.823725 27.000000,10.911862 27.000000,1.000000 
	C34.950726,1.000000 42.901455,1.000000 50.926090,1.000000 
	C50.926090,17.666456 50.926090,34.333183 50.926090,51.000000 
	C48.971172,51.000000 46.983490,51.000000 44.497906,50.531342 
	C44.000000,39.137287 44.000000,28.211893 44.000000,17.664358 
	C39.983025,17.664358 36.485374,17.664358 32.987724,17.664358 
	C33.010128,18.065889 33.032536,18.467422 33.054939,18.868954 
	C35.918770,18.868954 38.782600,18.868954 41.804604,18.868954 
	C41.804604,29.138802 41.804604,38.868168 41.804604,48.643745 
	C31.095160,48.643745 20.584513,48.643745 10.329433,48.643745 
	C10.329433,38.545750 10.329433,28.805624 10.329433,19.173561 
	C13.449794,18.997131 16.233786,18.839718 19.017778,18.682306 
	C18.987211,18.269974 18.956644,17.857641 18.926077,17.445309 
	C15.349556,17.445309 11.773035,17.445309 8.000000,17.445309 
	C8.000000,28.741737 8.000000,39.870869 8.000000,51.000000 
z"/>
<path fill="#FFFFFF" opacity="1.000000" stroke="none" 
	d="
M8.468657,51.000000 
	C8.000000,39.870869 8.000000,28.741737 8.000000,17.445309 
	C11.773035,17.445309 15.349556,17.445309 18.926077,17.445309 
	C18.956644,17.857641 18.987211,18.269974 19.017778,18.682306 
	C16.233786,18.839718 13.449794,18.997131 10.329433,19.173561 
	C10.329433,28.805624 10.329433,38.545750 10.329433,48.643745 
	C20.584513,48.643745 31.095160,48.643745 41.804604,48.643745 
	C41.804604,38.868168 41.804604,29.138802 41.804604,18.868954 
	C38.782600,18.868954 35.918770,18.868954 33.054939,18.868954 
	C33.032536,18.467422 33.010128,18.065889 32.987724,17.664358 
	C36.485374,17.664358 39.983025,17.664358 44.000000,17.664358 
	C44.000000,28.211893 44.000000,39.137287 44.000000,50.531342 
	C32.312439,51.000000 20.624876,51.000000 8.468657,51.000000 
z"/>
<path fill="#FFFFFF" opacity="1.000000" stroke="none" 
	d="
M26.666668,1.000000 
	C27.000000,10.911862 27.000000,20.823725 27.000000,31.525394 
	C29.803778,29.577274 31.983969,28.062433 34.164162,26.547592 
	C34.489792,26.925943 34.815422,27.304295 35.141052,27.682646 
	C33.889782,32.458313 29.093109,34.430149 26.130079,38.733082 
	C22.584572,35.035053 19.383335,31.696108 16.182100,28.357164 
	C16.737305,27.745256 17.292507,27.133348 17.847712,26.521441 
	C19.933928,27.991009 22.020144,29.460575 25.000000,31.559637 
	C25.000000,27.636257 24.924660,24.304852 25.016098,20.978033 
	C25.192148,14.572693 25.462559,8.169947 25.346920,1.383062 
	C25.444445,1.000000 25.888889,1.000000 26.666668,1.000000 
z"/>
</svg>